<?xml version="1.0" standalone="no"?>
<svg xmlns:xlink="http://www.w3.org/1999/xlink" id="wave" style="transform:rotate(180deg); transition: 0.3s" viewBox="0 0 1440 100" version="1.1" xmlns="http://www.w3.org/2000/svg"><defs><linearGradient id="sw-gradient-0" x1="0" x2="0" y1="1" y2="0"><stop stop-color="rgba(240, 255, 255, 1)" offset="0%"/><stop stop-color="rgba(240, 255, 255, 1)" offset="100%"/></linearGradient></defs><path style="transform:translate(0, 0px); opacity:1" fill="url(#sw-gradient-0)" d="M0,50L34.3,45C68.6,40,137,30,206,33.3C274.3,37,343,53,411,53.3C480,53,549,37,617,26.7C685.7,17,754,13,823,15C891.4,17,960,23,1029,23.3C1097.1,23,1166,17,1234,23.3C1302.9,30,1371,50,1440,53.3C1508.6,57,1577,43,1646,46.7C1714.3,50,1783,70,1851,66.7C1920,63,1989,37,2057,25C2125.7,13,2194,17,2263,26.7C2331.4,37,2400,53,2469,61.7C2537.1,70,2606,70,2674,73.3C2742.9,77,2811,83,2880,85C2948.6,87,3017,83,3086,73.3C3154.3,63,3223,47,3291,41.7C3360,37,3429,43,3497,40C3565.7,37,3634,23,3703,23.3C3771.4,23,3840,37,3909,50C3977.1,63,4046,77,4114,71.7C4182.9,67,4251,43,4320,40C4388.6,37,4457,53,4526,63.3C4594.3,73,4663,77,4731,76.7C4800,77,4869,73,4903,71.7L4937.1,70L4937.1,100L4902.9,100C4868.6,100,4800,100,4731,100C4662.9,100,4594,100,4526,100C4457.1,100,4389,100,4320,100C4251.4,100,4183,100,4114,100C4045.7,100,3977,100,3909,100C3840,100,3771,100,3703,100C3634.3,100,3566,100,3497,100C3428.6,100,3360,100,3291,100C3222.9,100,3154,100,3086,100C3017.1,100,2949,100,2880,100C2811.4,100,2743,100,2674,100C2605.7,100,2537,100,2469,100C2400,100,2331,100,2263,100C2194.3,100,2126,100,2057,100C1988.6,100,1920,100,1851,100C1782.9,100,1714,100,1646,100C1577.1,100,1509,100,1440,100C1371.4,100,1303,100,1234,100C1165.7,100,1097,100,1029,100C960,100,891,100,823,100C754.3,100,686,100,617,100C548.6,100,480,100,411,100C342.9,100,274,100,206,100C137.1,100,69,100,34,100L0,100Z"/></svg>